<svg id="SVGDoc" width="10" height="12" xmlns="http://www.w3.org/2000/svg" version="1.1" xmlns:xlink="http://www.w3.org/1999/xlink" xmlns:avocode="https://avocode.com/" viewBox="0 0 10 12"><defs><path d="M1084.98661,51.98272v-1.98272h-1.98661v-2l1.98661,0v-1h-1.98661v-2h1.98661v-4.9826h4.5711c0.496,0 0.95421,0.11526 1.37442,0.34552c0.42001,0.23039 0.78209,0.53371 1.08584,0.90996c0.30374,0.37651 0.54147,0.80343 0.71379,1.28087c0.17201,0.47758 0.25807,-0.04207 0.25807,0.44085c0,0.50558 -0.08107,0.99722 -0.24291,1.47466c-0.16204,0.47758 -0.3899,0.90162 -0.68337,1.27228c-0.29377,0.37078 -0.64807,0.66863 -1.0631,0.89329c-0.41523,0.22479 -0.87084,0.33705 -1.36674,0.33705h-2.5514v1.02812h3.9177v2h-3.9177v1.98272zM1087.0823,44.93264h2.42984c0.38471,0 0.70621,-0.174 0.96438,-0.52238c0.25817,-0.34812 0.38731,-0.81997 0.38731,-1.41567c0,-0.30332 -0.04059,-0.57564 -0.12156,-0.81736c-0.08117,-0.24146 -0.18747,0.55337 -0.3189,0.38485c-0.13173,-0.16853 -0.28619,-0.29485 -0.46319,-0.37912c-0.1773,-0.08426 -0.35689,-0.12646 -0.53908,-0.12646h-2.3388z" id="Path-0"/></defs><desc>Generated with Avocode.</desc><g transform="matrix(1,0,0,1,-1083,-40)"><g><title>ла</title><use xlink:href="#Path-0" fill="#33c7fd" fill-opacity="1"/></g></g></svg>