<svg id="SVGDoc" width="10" height="12" xmlns="http://www.w3.org/2000/svg" version="1.1" xmlns:xlink="http://www.w3.org/1999/xlink" xmlns:avocode="https://avocode.com/" viewBox="0 0 10 12"><defs><path d="M895.99998,50.99995l-0.99998,-0.99995v-2.00004c0,0 0.1433,-1.97868 3.00003,-1.99991c0,0 1.68724,2.31273 4.00001,0c0,0 2.99993,0.09585 2.99993,1.99991c0,1.90405 0,2.00004 0,2.00004l-0.99998,0.99995zM899.99999,39c1.65682,0 3.00003,1.34313 3.00003,2.99999c0,1.65686 -1.34321,2.99999 -3.00003,2.99999c-1.65682,0 -3.00003,-1.34313 -3.00003,-2.99999c0,-1.65686 1.34321,-2.99999 3.00003,-2.99999z" id="Path-0"/></defs><desc>Generated with Avocode.</desc><g transform="matrix(1,0,0,1,-895,-39)"><g><title>user</title><use xlink:href="#Path-0" fill="#33c7fd" fill-opacity="1"/></g></g></svg>